<?xml version="1.0" encoding="UTF-8"?>
<svg id="Capa_2" data-name="Capa 2" xmlns="http://www.w3.org/2000/svg" viewBox="0 0 193.56 273.46">
  <defs>
    <style>
      .cls-1 {
        fill: #386db4;
      }

      .cls-2 {
        fill: #5dba99;
      }
    </style>
  </defs>
  <g id="Capa_1-2" data-name="Capa 1">
    <g>
      <path class="cls-1" d="M81.53,182.34l-21.96-22.22c-9.3-7.67-30.01-3.28-42.03-4.32-10.17-.88-13.25-12.73-5.28-18.83L174.96,3.72c7.47-7.1,17.23-3.53,18.57,6.51l.02,211.48c-.76,8.82-9.1,14.11-17.26,9.98l-31.77-31c-5.7-3.95-9.49.23-13.29,4.09-18.5,18.77-35.82,38.64-54.38,57.39-7.26,7.34-12.34,16.55-24.08,7.57-14.48-16.32-32.8-31.33-46.83-47.8-.51-.59-.94-1.2-1.19-1.94,3.55,1.91,8.36,1.28,11.34-1.45l30.9-33.79,23.93,24.34c7.45,4.38,12.61.24,17.59-5.03,14.88-15.73,29.77-33.48,43.69-49.98.65-.77,4.48-5.16,4.83-5.34.7-.36.7-.11,1.22.24,4.76,3.28,10.12,14.81,17.14,8.98,1.44-1.2,1.94-2.57,2.47-4.29,3.8-12.44,4.52-27.5,8.08-40.2.6-5.66-4.3-9.44-9.78-8.33l-42.5,9.64c-10.9,7.28,5.57,14.86,9.33,20.89-14,15.4-27.36,31.37-41.49,46.66Z"/>
      <path class="cls-2" d="M81.53,182.34c14.13-15.28,27.49-31.25,41.49-46.66-3.76-6.03-20.23-13.61-9.33-20.89l42.5-9.64c5.48-1.11,10.39,2.67,9.78,8.33-3.56,12.71-4.28,27.76-8.08,40.2-.53,1.72-1.03,3.09-2.47,4.29-7.02,5.83-12.38-5.7-17.14-8.98-.51-.35-.52-.6-1.22-.24-.36.18-4.18,4.57-4.83,5.34-13.92,16.5-28.81,34.25-43.69,49.98-4.99,5.27-10.15,9.41-17.59,5.03l-23.93-24.34-30.9,33.79c-2.98,2.73-7.79,3.36-11.34,1.45-2.31-1.24-4.19-4.67-4.61-7.22-.66-3.99.95-7.16,3.4-10.17,7.14-8.79,18.17-19.45,26.31-27.77,7.01-7.16,14.5-17.15,25.28-9.32l21.81,22.12c1.5-1.79,3.01-3.59,4.59-5.3Z"/>
    </g>
  </g>
</svg>